<?xml version="1.0" encoding="UTF-8"?> <svg xmlns="http://www.w3.org/2000/svg" xmlns:xlink="http://www.w3.org/1999/xlink" width="793px" height="678px" viewBox="0 0 793 678"><!-- Generator: Sketch 48.1 (47250) - http://www.bohemiancoding.com/sketch --><title>rocket_launch_2</title><desc>Created with Sketch.</desc><defs><linearGradient x1="6667%" y1="21873%" x2="27471%" y2="21873%" id="linearGradient-1"><stop stop-color="#FFFFFF" stop-opacity="0" offset="2%"></stop><stop stop-color="#FFFFFF" stop-opacity="0.39" offset="32%"></stop><stop stop-color="#FFFFFF" stop-opacity="0.68" offset="68%"></stop><stop stop-color="#FFFFFF" offset="100%"></stop></linearGradient><linearGradient x1="18987%" y1="10567.8956%" x2="10495%" y2="4852.368%" id="linearGradient-2"><stop stop-color="#FFFFFF" stop-opacity="0" offset="2%"></stop><stop stop-color="#FFFFFF" stop-opacity="0.39" offset="32%"></stop><stop stop-color="#FFFFFF" stop-opacity="0.68" offset="68%"></stop><stop stop-color="#FFFFFF" offset="100%"></stop></linearGradient><linearGradient x1="70.7440093%" y1="71.0782933%" x2="-5.63053147%" y2="-7.23239437%" id="linearGradient-3"><stop stop-color="#FFFFFF" stop-opacity="0" offset="0%"></stop><stop stop-color="#FFFFFF" offset="95%"></stop></linearGradient><linearGradient x1="28136%" y1="21121%" x2="29699%" y2="21121%" id="linearGradient-4"><stop stop-color="#FFFFFF" stop-opacity="0" offset="0%"></stop><stop stop-color="#FFFFFF" offset="95%"></stop></linearGradient><linearGradient x1="58.1508423%" y1="57.2573236%" x2="32.2198949%" y2="13.1858887%" id="linearGradient-5"><stop stop-color="#FFFFFF" stop-opacity="0" offset="2%"></stop><stop stop-color="#FFFFFF" stop-opacity="0.39" offset="32%"></stop><stop stop-color="#FFFFFF" stop-opacity="0.68" offset="68%"></stop><stop stop-color="#FFFFFF" offset="100%"></stop></linearGradient><linearGradient x1="11582.8973%" y1="17845%" x2="10726.1296%" y2="21735%" id="linearGradient-6"><stop stop-color="#FFFFFF" stop-opacity="0" offset="2%"></stop><stop stop-color="#FFFFFF" stop-opacity="0.39" offset="32%"></stop><stop stop-color="#FFFFFF" stop-opacity="0.68" offset="68%"></stop><stop stop-color="#FFFFFF" offset="100%"></stop></linearGradient><linearGradient x1="34738%" y1="19978%" x2="34466%" y2="17204%" id="linearGradient-7"><stop stop-color="#FFFFFF" stop-opacity="0" offset="2%"></stop><stop stop-color="#FFFFFF" stop-opacity="0.39" offset="32%"></stop><stop stop-color="#FFFFFF" stop-opacity="0.68" offset="68%"></stop><stop stop-color="#FFFFFF" offset="100%"></stop></linearGradient><linearGradient x1="34717%" y1="19769%" x2="34490%" y2="17451%" id="linearGradient-8"><stop stop-color="#FFFFFF" stop-opacity="0" offset="2%"></stop><stop stop-color="#FFFFFF" stop-opacity="0.39" offset="32%"></stop><stop stop-color="#FFFFFF" stop-opacity="0.68" offset="68%"></stop><stop stop-color="#FFFFFF" offset="100%"></stop></linearGradient><linearGradient x1="40.742523%" y1="76.11079%" x2="89.58694%" y2="2.15802838%" id="linearGradient-9"><stop stop-color="#FFFFFF" stop-opacity="0" offset="2%"></stop><stop stop-color="#FFFFFF" stop-opacity="0.39" offset="32%"></stop><stop stop-color="#FFFFFF" stop-opacity="0.68" offset="66%"></stop><stop stop-color="#FFFFFF" offset="100%"></stop></linearGradient></defs><g id="Artboard" stroke="none" stroke-width="1" fill="none" fill-rule="evenodd" transform="translate(-102.000000, -134.000000)"><g id="rocket_launch_2" transform="translate(85.000000, 117.000000)" fill-rule="nonzero"><g id="Group-2" transform="translate(115.000000, 328.000000)"><path d="M376,355.903566 C317.507402,353.937001 258.889973,354.669993 200.468708,358.102544 C186.618327,358.901088 172.77389,359.860534 158.935397,360.98088 C131.36541,363.179858 108.235868,365.057034 80.9690444,360.98088 C78.8112382,360.659079 72.6014206,361.409949 70.4257812,360.98088 C45.5842604,356.20749 15.5681307,375.622854 0.28515625,355.903566 C7.7037296,271.770323 60.3718035,185.777782 80.9690444,158.621302 C115.565276,113.068496 255.038022,5.46161337 269.268843,1.40333752 C283.374832,-2.58342687 279.879542,3.19112423 279.879542,3.19112423 L282.679341,20.7114341 C279.897376,22.6243659 60.8354643,174.335947 162.840848,269.052887 C216.500673,318.878503 300.655114,343.675105 376,355.903566 Z" id="Shape" fill="url(#linearGradient-1)"></path><path d="M92.1275222,225.589495 C64.9216759,292.280766 120.214457,331.387407 200.105782,359.079719 C186.140234,359.881354 172.18068,360.844513 158.22712,361.969196 C130.427888,364.176684 102.269027,367.012319 74.7754788,362.92039 C59.6711093,329.197866 53.1978082,298.310978 54.0788964,276.45146 C58.6281886,156.080536 266.259324,3.36901177 269.477993,1 L283,20.3289824 C280.644438,21.118653 157.921436,64.1915944 92.1275222,225.589495 Z" id="Shape" fill="url(#linearGradient-2)"></path></g><g id="Rocket" transform="translate(228.000000, 49.000000)"><path d="M177.987168,304.504557 C177.987168,304.504557 237.602159,320.024855 231.056893,336.670671 C224.511627,353.316487 197.092269,370.31773 159,389.984673 L160.356226,409 C160.356226,409 261.011804,378.374068 272.923009,337.085336 C279.820108,312.63536 274.980135,286.352924 259.832477,266 L177.987168,304.504557 Z" id="Shape" fill="#68E1FD"></path><path d="M177.987168,304.504557 C177.987168,304.504557 237.602159,320.024855 231.056893,336.670671 C224.511627,353.316487 197.092269,370.31773 159,389.984673 L160.356226,409 C160.356226,409 261.011804,378.374068 272.923009,337.085336 C279.820108,312.63536 274.980135,286.352924 259.832477,266 L177.987168,304.504557 Z" id="Shape" fill="url(#linearGradient-3)"></path><path d="M166.43274,241 C166.43274,241 125.588434,265.612296 119.077023,271.162127 C112.565612,276.711959 112.684001,294.809235 128.133804,313.871699 C151.3973,342.465396 170.63556,335.166161 170.63556,335.166161 L210,293.542426 L166.43274,241 Z" id="Shape" fill="#68E1FD"></path><path d="M166.43274,241 C166.43274,241 125.588434,265.612296 119.077023,271.162127 C112.565612,276.711959 112.684001,294.809235 128.133804,313.871699 C151.3973,342.465396 170.63556,335.166161 170.63556,335.166161 L210,293.542426 L166.43274,241 Z" id="Shape" fill="url(#linearGradient-4)"></path><path d="M132,268.673339 C168.711805,207.338891 217.572796,154.069644 275.614852,112.101504 C373.504797,40.5141588 518.114942,-12.5501795 566.357354,2.59441759 C614.599767,17.7390147 553.418552,131.614735 352.662201,240.772331 C348.388298,243.044021 319.583362,258.829351 315.133819,260.75155 L175.500137,319 C175.500137,319 149.271252,317.718534 132,268.673339 Z" id="Shape" fill="#68E1FD"></path><path d="M132,268.673339 C168.711805,207.338891 217.572796,154.069644 275.614852,112.101504 C373.504797,40.5141588 518.114942,-12.5501795 566.357354,2.59441759 C614.599767,17.7390147 553.418552,131.614735 352.662201,240.772331 C348.388298,243.044021 319.583362,258.829351 315.133819,260.75155 L175.500137,319 C175.500137,319 149.271252,317.718534 132,268.673339 Z" id="Shape" fill="url(#linearGradient-5)"></path><path d="M209.372051,164.540695 C209.372051,164.540695 166.228366,121.672136 117.844558,142.902279 C69.4607499,164.132423 0,267.658535 0,267.658535 L23.9881215,269 C23.9881215,269 104.045566,192.828111 118.485018,199.010516 C132.924469,205.19292 134.088941,257.743358 134.088941,257.743358 C134.088941,257.743358 167.567509,253.42734 191.38096,214.291553 C215.194411,175.155767 209.372051,164.540695 209.372051,164.540695 Z" id="Shape" fill="#68E1FD"></path><path d="M209.372051,164.540695 C209.372051,164.540695 166.228366,121.672136 117.844558,142.902279 C69.4607499,164.132423 0,267.658535 0,267.658535 L23.9881215,269 C23.9881215,269 104.045566,192.828111 118.485018,199.010516 C132.924469,205.19292 134.088941,257.743358 134.088941,257.743358 C134.088941,257.743358 167.567509,253.42734 191.38096,214.291553 C215.194411,175.155767 209.372051,164.540695 209.372051,164.540695 Z" id="Shape" fill="url(#linearGradient-6)"></path><circle id="Oval" fill="url(#linearGradient-7)" cx="468" cy="96" r="32"></circle><circle id="Oval" fill="url(#linearGradient-8)" cx="465.5" cy="94.5" r="26.5"></circle></g><g id="Group" transform="translate(405.000000, 358.000000) rotate(-2.000000) translate(-405.000000, -358.000000) translate(12.000000, 14.000000)"><path d="M723.763942,660.566305 C710.918022,697.37825 620.766074,673.577243 594.110267,671.775406 C569.089015,670.085311 544.053793,668.828216 519.004599,668.00412 C450.269501,665.699445 381.387713,666.55846 312.736438,670.581166 C296.460749,671.517003 280.192046,672.641405 263.930327,673.954372 C231.532626,676.531417 198.715808,679.841769 166.674355,675.064806 C164.1387,674.687677 161.58209,674.268646 159.02548,673.765807 C129.834019,668.171733 100.998807,653.987506 83.0396671,630.877901 C79.7528751,626.658423 76.856065,622.149288 74.3849123,617.406029 C57.2849611,584.407273 63.0478123,544.5783 55.0217323,508.311096 C47.854841,475.919937 29.8747452,447.048645 18.8310268,415.746969 C-1.73969495,357.537022 2.56427447,293.427647 30.7312453,238.488373 C58.8982161,183.5491 108.443915,142.625467 167.722146,125.336971 C222.710224,109.267101 282.32954,114.588805 337.045192,97.7227749 C394.799439,79.8720197 442.893052,38.6183378 500.144359,19.1543101 C550.63128,2.19876778 605.398099,3.00454308 655.364137,21.4380335 C713.600368,43.1229298 766.283305,103.484462 747.674535,162.777464 C739.962792,187.290825 720.997773,208.179561 718.483074,233.761453 C713.600368,283.668142 771.207924,318.992523 779.045401,368.522084 C787.888759,424.441879 733.256929,466.785044 699.14085,511.977625 C689.731686,524.401918 681.454136,538.334726 678.981349,553.713193 C672.464088,594.422134 733.361708,633.119722 723.763942,660.566305 Z" id="Shape" fill="#68E1FD" opacity="0.24" transform="translate(393.000000, 344.000000) rotate(1.000000) translate(-393.000000, -344.000000) "></path><path d="M143.853389,232.351465 C154.519421,226.457896 166.813536,222.242211 178.794557,224.696117 C190.775579,227.150023 201.483357,238.09822 200.293604,250.283856 C211.194491,249.133639 221.416638,255.782119 224.835955,266.246192 C228.255273,276.710266 223.944887,288.153433 214.487149,293.720093 C227.219593,303.305008 226.718645,324.362459 216.240469,336.380307 C205.762293,348.398155 188.52131,352.425078 172.657936,351.250559 C156.794563,350.07604 141.661739,344.434153 126.361932,340.071653 C122.271098,338.575582 117.875026,338.121603 113.566869,338.750319 C108.891348,339.840944 105.217725,343.280607 101.377118,346.237879 C83.9096416,359.712663 61.476527,364.894492 39.9065445,360.436977 C33.0037948,359.220381 26.5320152,356.229001 21.1209702,351.753924 C13.8363419,345.189201 10.5175571,335.184815 9.4112955,325.411137 C6.42647646,299.089323 19.8477257,270.145815 44.4568281,260.393111 C44.4568281,260.393111 47.75474,246.655431 48.6314001,245.06144 C51.3772141,239.820497 55.2059012,235.22965 59.860999,231.596417 C68.2101432,225.073641 79.0431577,221.633977 88.9577664,218.40405 C108.202544,212.070035 138.342954,203.198221 143.853389,232.351465 Z" id="Shape" fill="url(#linearGradient-9)"></path></g></g></g></svg> 